# xmcd CD database file
#
# Track frame offsets:
#	150
#	17706
#	32661
#	52075
#	70880
#	89498
#	102730
#	134881
#	148873
#	168125
#	192305
#	202930
#	219086
#	267216
#	308036
#	313250
#
# Disc length: 4360 seconds
#
# Revision: 1
# Processed by: cddbd v1.5.2PL0 Copyright (c) Steve Scherf et al.
# Submitted via: CDex 1.51
#
DISCID=f2110610
DTITLE=Hound Dog Taylor - Release The Hound!
DYEAR=1900
DGENRE=Blues
TTITLE0=Wild About You Baby
TTITLE1=Sen-Sa-Shun
TTITLE2=She's Gone
TTITLE3=It Hurts Me Too
TTITLE4=What'd I Say
TTITLE5=One More Time
TTITLE6=Sadie
TTITLE7=Dog Meets The Wolf
TTITLE8=Walking The Ceiling
TTITLE9=Sitting At Home Alone
TTITLE10=Phillips Screwdriver
TTITLE11=Gonna Send You Back To Georgia
TTITLE12=Things Don't Work Out Right
TTITLE13=See Me In The Evening - It's Alright
TTITLE14="Talking"
TTITLE15=Roll Your Moneymaker
EXTD=
EXTT0=
EXTT1=
EXTT2=
EXTT3=
EXTT4=
EXTT5=
EXTT6=
EXTT7=
EXTT8=
EXTT9=
EXTT10=
EXTT11=
EXTT12=
EXTT13=
EXTT14=
EXTT15=
PLAYORDER=
